<?xml version="1.0" encoding="utf-8"?>
<!-- Simple tooth SVG for Tooth Care site -->
<svg xmlns="http://www.w3.org/2000/svg" viewBox="0 0 64 64" width="64" height="64" role="img" aria-label="Tooth Care">
  <title>Tooth Care</title>
  <rect width="100%" height="100%" fill="none"/>
  <!-- tooth shape -->
  <path d="M32 4c-6 0-11 4-13 9-2 5-2 13 0 20 2 6 5 9 6 15 0 0 2 4 7 4s7-4 7-4c1-6 4-9 6-15 2-7 2-15 0-20C43 8 38 4 32 4z" fill="#ffffff" stroke="#2b6cb0" stroke-width="2"/>
  <!-- sparkle -->
  <g transform="translate(44,12) scale(.6)">
    <polygon points="8,0 10,6 16,8 10,10 8,16 6,10 0,8 6,6" fill="#ffd54a" opacity="0.95" />
  </g>
</svg>
